<svg width="774" height="536" viewBox="0 0 774 536" fill="none" xmlns="http://www.w3.org/2000/svg">
<g opacity="0.5" clip-path="url(#clip0_331_31)">
<path d="M660.701 420.396V419.115L659.415 415.272V412.727V411.446H661.988V412.727V415.272H663.257H670.959L673.515 413.991L676.088 411.446L678.644 408.884H681.217L682.503 410.165V411.446L681.217 415.272L679.93 417.834L682.503 419.115V420.396H679.93H678.644H674.801H672.245L668.386 421.677L664.543 420.396H663.257H661.988H660.701Z" fill="#E8EBEB" stroke="white" stroke-width="3" stroke-miterlimit="10" stroke-linecap="square"/>
<path d="M29.9156 113.247L31.2022 108.122V101.717H28.6291H26.0733H23.5002H19.6579V97.8908H18.3713L123.505 0.614868L129.921 8.30129L135.049 9.58236L136.336 12.1445L141.465 18.5328L142.734 21.0949L141.465 22.376L140.178 24.9381L137.605 27.5003L135.049 30.0624L131.207 36.4507L126.078 39.0128L124.792 42.856L126.078 45.4182L127.347 46.6992L131.207 49.2443H132.476V51.8064L131.207 53.0875V55.6497V58.2118L129.921 60.7739L126.078 62.055H124.792L123.505 64.6172V67.1622H126.078H127.347H128.634L127.347 71.0054L126.078 73.5676L123.505 76.1297H122.219L119.663 77.4108H118.376L117.107 79.9729L115.82 82.5351L117.107 83.8161L115.82 91.4855H117.107L118.376 92.7666L120.949 95.3287V97.8908H122.219V101.717L119.663 108.122V110.684H118.376H115.82L114.534 114.528V117.09L115.82 119.635V122.197L113.247 126.04H111.978L110.691 128.602V132.446V135.008H111.978H114.534V137.553V138.834L115.82 147.801H117.107L115.82 150.363L114.534 154.19V159.314H115.82H117.107H118.376L119.663 160.595L120.949 163.157H123.505H124.792L127.347 165.719H129.921V168.281L128.634 172.108V174.67L126.078 175.951L124.792 181.075L104.276 169.562L78.6316 152.926L52.9871 135.008L29.9156 113.247Z" fill="#E8EBEB" stroke="white" stroke-width="3" stroke-miterlimit="10" stroke-linecap="square"/>
<path d="M6.84436 233.548L8.11372 237.391L9.40023 239.936L8.11372 242.498L6.84436 243.779L5.55785 246.341L6.84436 251.466L5.55785 252.747H2.98483V251.466L0.428955 246.341V243.779V237.391L2.98483 236.11L4.27134 230.986V224.58L5.55785 222.018L8.11372 218.192H9.40023L10.6867 220.754L11.9733 222.018V224.58H13.2426H15.8156L17.1022 227.142L15.8156 228.423L13.2426 229.705L11.9733 230.986L9.40023 233.548H6.84436Z" fill="#E8EBEB" stroke="white" stroke-width="3" stroke-miterlimit="10" stroke-linecap="square"/>
<path d="M38.8869 344.881V343.6V341.055L41.4599 337.212L38.8869 329.526L37.6175 326.963L35.0445 323.137V316.732L32.4886 307.782L29.9156 305.219L28.6291 303.938L23.5002 298.814L22.2308 292.409L19.6578 288.583L17.1019 286.02H15.8154H13.2424H11.973L10.6865 288.583L11.973 292.409L14.5289 294.971L15.8154 296.252L13.2424 298.814V302.657L14.5289 303.938L17.1019 305.219H19.6578V307.782V312.889V314.17L22.2308 318.013V320.575L23.5002 321.856L24.7867 323.137V326.963L26.0732 329.526H28.6291L29.9156 333.369L31.2021 335.931V339.774V344.881H32.4886L37.6175 347.443L38.8869 344.881Z" fill="#E8EBEB" stroke="white" stroke-width="3" stroke-miterlimit="10" stroke-linecap="square"/>
<path d="M132.476 381.998L115.82 375.61L94.0183 366.642L73.5028 356.411L56.8467 347.444L47.8583 341.055V335.931V334.65L50.4313 333.369L47.8583 332.088V329.526H44.0159V328.245L38.887 320.575V316.732L41.46 314.17V307.782H38.887L37.6176 311.608L35.0446 310.327V307.782L32.4887 303.938L31.2022 301.376L28.6292 298.814L24.7868 292.409L23.5003 288.583L22.231 286.02V283.458L23.5003 282.177H28.6292V279.615L29.9157 274.491L31.2022 273.227H35.0446H37.6176V270.665V268.103L35.0446 266.821L31.2022 268.103L29.9157 264.259L28.6292 261.697V259.135V257.854L29.9157 255.309L31.2022 252.747V250.185L32.4887 248.904L35.0446 246.341L37.6176 243.779V242.498L35.0446 239.936L32.4887 243.779H29.9157V239.936V237.391L31.2022 233.548V230.986V228.423L29.9157 224.58V222.018H32.4887L35.0446 220.754L37.6176 218.192L38.887 215.63L44.0159 213.068V209.225V206.662V202.836V196.431L41.46 193.869H38.887L37.6176 190.026L38.887 187.463L41.46 184.918L44.0159 181.075V175.951V172.108L47.8583 165.719V156.752V150.364L45.3024 143.958V141.396L47.8583 138.834L45.3024 135.008L44.0159 132.446H38.887H37.6176L32.4887 135.008H29.9157H28.6292L23.5003 137.553L22.231 135.008L23.5003 132.446L24.7868 128.602L26.0733 123.478L28.6292 119.635L29.9157 113.247L52.9872 135.008L78.6316 152.926L104.276 169.563L124.792 181.075L138.892 190.026L152.992 196.431L108.118 282.177V286.02V291.128L110.692 296.252L114.534 301.376V302.657V305.219L111.978 307.782V311.608L113.247 312.889L117.107 314.17L118.376 318.013V323.137V325.699L119.663 328.245L123.505 329.526L124.792 332.088L126.078 333.369V335.931V343.6V344.881L127.348 348.725L129.921 350.006L131.207 351.287L132.476 353.849L133.763 357.692V360.254L132.476 362.799L129.921 364.08V366.642L128.634 369.205L129.921 371.767H131.207V373.048V375.61V379.436L132.476 381.998Z" fill="#E8EBEB" stroke="white" stroke-width="3" stroke-miterlimit="10" stroke-linecap="square"/>
<path d="M152.992 196.431L108.118 282.177V286.02V291.128L110.691 296.252L114.534 301.376V302.657V305.219L111.978 307.781V311.608L113.247 312.889L117.107 314.17L118.376 318.013V323.137V325.699L119.663 328.244L123.505 329.525L124.792 332.088L126.078 333.369V335.931V343.6V344.881L127.347 348.725L129.92 350.006L131.207 351.287L132.476 353.849L133.763 357.692V360.254L132.476 362.799L129.92 364.08V366.642L128.634 369.205L129.92 371.767H131.207V373.048V375.61V379.436L132.476 381.998L138.892 384.56L164.536 392.247L173.508 394.809L224.796 224.58L196.579 215.63L174.794 206.662L152.992 196.431Z" fill="#E8EBEB" stroke="white" stroke-width="3" stroke-miterlimit="10" stroke-linecap="square"/>
<path d="M224.797 224.58L173.508 394.809L192.737 399.916L220.954 407.603L251.71 413.991L260.699 415.272L288.899 242.498L267.097 237.391L246.581 230.986L224.797 224.58Z" fill="#E8EBEB" stroke="white" stroke-width="3" stroke-miterlimit="10" stroke-linecap="square"/>
<path d="M288.899 242.498L260.699 415.272L282.484 419.115L314.544 422.958L324.801 424.239H326.071L324.801 420.396L326.071 417.834L331.2 365.361L345.317 353.849L392.746 303.938L388.904 301.376L383.775 298.814L378.646 297.533L376.073 298.814L369.675 301.376L359.417 303.938L354.288 305.219L350.429 306.5V305.219L351.715 303.938L354.288 302.657H358.131L361.973 298.814L363.259 297.533L361.973 292.409L360.686 286.02V280.896L359.417 274.491L358.131 270.665H356.844H354.288H351.715H350.429L347.873 268.103L346.586 266.821L345.317 268.103L344.03 266.821L342.744 264.259L344.03 260.416L345.317 255.309L346.586 252.747V250.185L331.2 248.904L310.684 246.341L288.899 242.498Z" fill="#E8EBEB" stroke="white" stroke-width="3" stroke-miterlimit="10" stroke-linecap="square"/>
<path d="M486.336 388.404L483.78 387.123H481.207L478.651 388.404L476.078 387.123V384.56L474.792 379.436L472.236 375.61H468.393L467.107 371.767L465.82 367.924L463.264 366.642L459.405 364.08L458.136 360.254L459.405 355.13L458.136 352.568L456.849 348.725L455.563 343.6L454.293 338.493L455.563 333.369L456.849 328.245V326.963H453.007L447.878 328.245L441.462 326.963H437.62L433.778 329.526H432.491L427.362 328.245L426.076 325.699L424.789 321.856L420.947 320.575L413.262 319.294L408.133 314.17H406.847L405.56 307.782L404.291 305.219L400.431 303.938H397.875H395.302H392.746L345.317 353.849L331.2 365.361L326.071 417.834L328.644 419.115L329.93 425.521L331.2 426.802L338.902 429.364L346.586 431.909L353.002 435.752L358.131 438.314L360.687 442.157H363.26H367.102L372.231 438.314L374.804 437.033L385.062 442.157H387.618L390.173 439.595L391.46 438.314L396.589 437.033L397.875 434.471L399.162 430.628L400.431 428.083L404.291 426.802L409.42 429.364L417.104 430.628L420.947 433.19L423.52 437.033L424.789 440.876L427.362 442.157L432.491 444.719L433.778 446.001L435.047 448.546L437.62 449.827V452.389V461.356L438.906 466.464L440.176 467.745L445.305 469.026L446.591 470.307L449.164 471.588L455.563 469.026L460.691 470.307L464.534 471.588L470.949 470.307L474.792 471.588L476.078 472.869L478.651 474.15L481.207 472.869H482.494H485.049L487.622 474.15V475.431L488.909 479.274L490.178 484.381L494.038 488.225V490.787V493.349L490.178 494.63L487.622 493.349L486.336 490.787L482.494 488.225L477.365 484.381V485.662L478.651 486.944L479.921 489.506V493.349L477.365 498.473L476.078 503.58L477.365 509.986L476.078 513.829L472.236 515.11L470.949 518.936L468.393 525.342L469.663 527.904L468.393 530.466H467.107H463.264V533.028V534.309L464.534 535.573H465.82L469.663 534.309L476.078 530.466L478.651 526.623L482.494 522.779H486.336H490.178L494.038 521.498L497.88 517.672H500.436L504.278 516.391L506.852 515.11L508.138 513.829V512.548V511.267H505.565H499.15H497.88V509.986L499.15 506.143L504.278 502.299L509.407 499.737L514.536 498.473L519.665 499.737L526.081 498.473L529.923 495.911L533.782 494.63L537.625 488.225L542.754 480.555L549.152 475.431L553.012 472.869L559.41 467.745H558.14L553.012 466.464H549.152L544.023 469.026L541.467 470.307H537.625H529.923L514.536 463.918H509.407L501.723 457.513L496.594 453.67L495.307 449.827L488.909 390.966L486.336 388.404Z" fill="#E8EBEB" stroke="white" stroke-width="3" stroke-miterlimit="10" stroke-linecap="square"/>
<path d="M700.446 407.603V403.759V402.478V397.354V396.073H697.873H695.317V398.635V401.197L694.031 406.322L691.475 408.884V412.727L692.744 416.553L695.317 419.115L700.446 417.834H701.732L704.288 415.272L706.861 412.727V408.884V407.603V406.322V405.04L701.732 407.603H700.446Z" fill="#E8EBEB" stroke="white" stroke-width="3" stroke-miterlimit="10" stroke-linecap="square"/>
<path d="M661.987 430.628V433.19L663.257 434.471H665.83L669.672 433.19L670.959 431.909L672.245 434.471L670.959 437.033L667.116 438.314L668.386 440.876L667.116 442.157L663.257 440.876L659.414 442.157L658.128 444.719L655.572 449.827L651.73 453.67L649.157 456.232L647.87 460.075L649.157 466.464L650.443 467.745H655.572L658.128 470.307H659.414L661.987 469.026V466.464L664.543 463.919L665.83 461.356L668.386 456.232V452.389L670.959 448.546H673.515H676.088L677.374 444.719L678.643 442.157L683.772 440.876L687.615 437.033L692.744 430.628L697.873 426.802L700.446 424.239V422.958L697.873 420.396H694.03L690.188 422.958L683.772 424.239H678.643L674.801 426.802H672.245L670.959 425.521H668.386L665.83 426.802V428.083H663.257L661.987 430.628Z" fill="#E8EBEB" stroke="white" stroke-width="3" stroke-miterlimit="10" stroke-linecap="square"/>
<path d="M726.09 329.526V335.931L729.933 334.65L732.489 337.212L735.062 338.493L741.477 334.65L744.033 329.526L746.606 328.244H750.448L751.735 329.526L750.448 335.931V339.774L751.735 342.336H754.291L755.577 339.774L758.133 335.931L759.42 332.088L761.993 333.369V339.774V342.336L759.42 343.6V347.443V348.725L763.262 350.006V348.725V343.6L764.548 342.336L765.835 343.6V344.881V347.443V350.006L767.104 353.849L769.677 350.006H770.964H772.233L773.52 351.287L772.233 356.411V360.254V364.08L769.677 366.642H768.391L767.104 364.08L765.835 365.361L763.262 366.642H761.993H760.706L759.42 362.799L760.706 358.973V355.13L759.42 353.849L758.133 352.568V355.13L755.577 358.973L754.291 362.799L751.735 365.361V369.205L750.448 373.048L749.162 375.61H746.606H744.033V374.329V373.048L746.606 369.205L749.162 364.08V360.254H746.606L744.033 362.799L742.746 366.642H741.477L738.904 365.361H737.617L736.348 367.923L732.489 369.205L719.675 374.329L715.832 375.61L710.704 380.717L706.861 381.998H704.288L701.732 380.717L704.288 375.61L706.861 369.205V367.923L710.704 366.642L708.131 365.361L706.861 364.08L704.288 366.642H701.732L700.446 365.361V362.799H701.732L704.288 358.973L706.861 356.411L708.131 352.568L706.861 350.006V342.336L704.288 334.65L706.861 328.244L704.288 323.137L706.861 316.732V311.608L713.259 306.5L715.832 305.219H717.119V307.782V310.327L713.259 314.17V319.294L715.832 323.137V329.526V335.931V337.212L717.119 338.493L719.675 337.212V333.369L723.517 329.526H726.09Z" fill="#E8EBEB" stroke="white" stroke-width="3" stroke-miterlimit="10" stroke-linecap="square"/>
<path d="M700.446 314.17H704.288V312.889L706.861 307.782L710.704 303.938V298.814L706.861 294.971L704.288 291.128L701.732 283.458L700.446 282.177L697.873 280.896H691.474L688.901 279.615L683.773 277.053H682.503H678.644L677.374 279.615L674.801 283.458L673.515 289.864L669.672 292.409L668.386 294.971L667.117 298.814L665.83 302.657H664.543H661.988V301.376V298.814L663.257 292.409L667.117 288.583L670.959 283.458L673.515 277.053L676.088 275.772L678.644 273.227V270.665H676.088H670.959L669.672 268.103H668.386L667.117 270.665L663.257 274.491L658.128 270.665L655.572 273.227L650.443 270.665L646.601 268.103L644.028 266.821H637.63L635.057 265.54L632.501 261.697L631.214 259.135V252.747L628.641 248.904L626.085 246.341H622.243L620.956 243.779L619.67 239.936L611.985 237.391L606.856 233.548L603.014 227.142L600.441 224.58L594.025 222.018L591.47 218.192L588.897 215.63L585.054 214.349L586.341 222.018L588.897 227.142L594.025 230.986L600.441 239.936L599.154 246.341H606.856L609.412 255.309L613.272 260.416L609.412 266.821L620.956 279.615L619.67 283.458L626.085 288.583L620.956 298.814L613.272 296.252L609.412 298.814L599.154 296.252L595.312 292.409L599.154 305.219L590.183 298.814V305.219L592.756 310.327L595.312 318.013L599.154 323.137V328.244L601.727 335.931L609.412 328.244V338.493L618.383 343.6L624.799 335.931L631.214 344.881L635.057 338.493L631.214 329.526V323.137L635.057 325.699V328.244L640.186 334.65L697.873 307.782L700.446 314.17Z" fill="#E8EBEB" stroke="white" stroke-width="3" stroke-miterlimit="10" stroke-linecap="square"/>
<path d="M605.57 422.958L608.126 426.801H609.412L614.541 425.52L615.828 422.958L617.114 421.677H619.67L620.957 422.958V429.364L624.799 442.157L626.085 444.719H631.214L632.501 446V449.827L636.343 451.108V452.389H638.899V449.827L642.759 448.546L646.601 447.281L650.443 442.157L655.572 439.595L658.128 437.033L659.415 431.909V429.364L661.988 430.628L663.257 428.083L665.83 426.801L664.544 425.52L667.117 422.958H664.544L659.415 424.239L654.286 419.115V413.991L653.016 412.727H647.87V410.165L649.157 406.321L647.87 405.04L646.601 403.759H644.028L642.759 406.321H640.186L637.63 405.04H633.77H631.214L627.372 406.321H626.085L624.799 407.602L622.243 408.884H620.957H618.383L615.828 407.602L614.541 408.884L613.272 410.165L611.985 412.727V416.553V417.834L610.699 420.396L608.126 421.677L605.57 422.958Z" fill="#E8EBEB" stroke="white" stroke-width="3" stroke-miterlimit="10" stroke-linecap="square"/>
<path d="M605.57 422.958L608.126 421.677L610.699 420.396L611.985 417.834V416.553V412.727L613.272 410.165L614.541 408.884L615.828 407.603L618.383 408.884H620.956H622.243L624.799 407.603L626.085 406.322H627.372L631.214 405.04H633.77L635.057 401.197L636.343 398.635L638.899 397.354H642.758L644.028 396.073L645.314 393.528L650.443 390.966L651.73 388.404V385.841L649.157 384.56L647.87 381.998L646.601 380.717H642.758L636.343 381.998L631.214 384.56L624.799 388.404L619.67 392.247L613.272 399.916L608.126 406.322L601.727 413.991L599.154 422.958L596.598 429.364L594.025 435.752L590.183 440.876L585.054 443.438L577.369 447.282L573.527 452.389L569.667 457.513L568.398 463.918L565.825 467.745L559.41 471.588L555.567 472.869L554.281 475.431L569.667 470.307L577.369 469.026L585.054 467.745L587.627 466.463L588.897 463.918L590.183 461.356H595.312L599.154 452.389V449.827L596.598 446.001V442.157L599.154 437.033L601.727 429.364L605.57 422.958Z" fill="#E8EBEB" stroke="white" stroke-width="3" stroke-miterlimit="10" stroke-linecap="square"/>
<path d="M644.028 369.205L647.87 366.642L654.286 365.361H656.859H660.701L667.116 366.642L670.959 365.361H673.515L674.801 367.923V369.205V370.486L670.959 371.767H668.386L665.83 373.048L659.415 371.767H654.286L651.73 369.205H647.87H645.314H644.028Z" fill="#E8EBEB" stroke="white" stroke-width="3" stroke-miterlimit="10" stroke-linecap="square"/>
<path d="M479.92 202.836H490.178L494.038 209.224L500.436 206.662L505.565 200.274H511.98L517.109 211.787L526.08 209.224L527.367 215.63L532.496 218.192L535.052 215.63L540.181 218.192L545.31 215.63H549.152L544.023 222.018L547.883 229.705L546.596 237.391L549.152 242.498L555.567 246.341L556.854 248.903L561.983 246.341L565.825 248.903L564.539 259.135L569.667 255.309V246.341H576.083L578.639 237.391L586.341 246.341L582.498 233.548L585.054 228.423L582.498 222.018L583.768 213.068L585.054 214.349L586.341 222.018L588.897 227.142L594.025 230.986L595.312 237.391L600.441 239.936L599.154 246.341H606.856L609.412 255.309L613.272 260.416L609.412 266.821L617.114 275.772L620.956 279.615L619.67 283.458L626.085 288.583L620.956 298.814L613.272 296.252L609.412 298.814L599.154 296.252L595.312 292.409L599.154 305.219L590.183 298.814V305.219L592.756 310.327L595.312 318.013L599.154 323.137V328.244L601.727 335.931L609.412 328.244V338.493L618.383 343.6L624.799 335.931L631.214 344.881L635.057 338.493L631.214 329.526V323.137L635.057 325.699V328.244L640.185 334.65L697.873 307.782L700.446 314.17L697.873 320.575L688.901 323.137V333.369L682.503 341.055V344.881L672.245 352.568L659.415 357.692L633.77 365.361L619.67 369.205L615.828 375.61L617.114 385.841L608.126 389.685L599.154 405.04L594.025 422.958L591.47 428.083L587.627 437.033L574.796 443.438L568.398 452.389L565.825 458.794L563.269 463.918L559.41 467.745H558.14L553.011 466.463H549.152L544.023 469.026L541.467 470.307H529.923L514.536 463.918H509.407L501.722 457.513L496.594 453.67L495.307 449.827L488.909 390.966L486.336 388.404L488.909 381.998L495.307 380.717L491.465 373.048L492.751 366.642L491.465 360.254L488.909 356.411L487.622 352.568L490.178 344.881L483.78 341.055L482.493 333.369L488.909 328.244L496.594 320.575L505.565 305.219L511.98 303.938L506.851 297.533L503.009 289.864L495.307 277.053L485.049 270.665L482.493 268.102L483.78 260.416L488.909 252.747V243.779L485.049 239.936L483.78 233.548H479.92V228.423L482.493 222.018L474.792 218.192V211.787L479.92 202.836Z" fill="#E8EBEB" stroke="white" stroke-width="3" stroke-miterlimit="10" stroke-linecap="square"/>
<path d="M433.777 31.3436V33.8886V36.4508L435.047 37.7318L437.62 39.0129L438.906 40.294L440.176 42.8561V45.4183H444.035H446.591H449.164H450.433H453.006H454.293L455.562 42.8561V40.294L454.293 39.0129V37.7318L451.72 36.4508H449.164V33.8886L447.878 31.3436V30.0625H446.591H444.035H442.749L438.906 31.3436H436.333H433.777Z" fill="#E8EBEB" stroke="white" stroke-width="3" stroke-miterlimit="10" stroke-linecap="square"/>
<path d="M328.644 92.7666L329.93 88.9234V86.3613H328.644L326.071 83.8162L323.515 82.5351L322.228 77.4109V73.5676L320.942 71.0055H319.672H317.099H315.813L314.543 67.1623V60.774L315.813 51.8065L317.099 45.4182L315.813 39.0129L317.099 37.7318V36.4507L310.684 30.0625H309.415L306.842 31.3435L305.572 33.8886V39.0129V46.6993V51.8065V54.3687L302.999 55.6497L301.713 54.3687L299.157 53.0876V49.2444L300.443 42.8561L301.713 39.0129L300.443 33.8886H297.87H295.314L291.455 37.7318L290.185 39.0129H286.326H285.057L283.77 37.7318L285.057 36.4507H287.612V33.8886L286.326 30.0625H285.057H282.484H278.641H277.355H276.068V27.5003H278.641L279.928 24.9382L281.197 23.6571V21.095L279.928 18.5328H278.641H276.068L273.512 21.095H272.226L268.383 22.376L267.097 21.095H263.254H260.699L259.412 22.376L258.126 24.9382L255.57 33.8886H252.997H249.154V37.7318L251.71 39.0129L255.57 40.294L259.412 42.8561L263.254 45.4182V46.6993H260.699H256.839L252.997 45.4182H250.441H247.868L245.312 49.2444L246.581 51.8065H249.154L250.441 53.0876L258.126 55.6497L263.254 58.2119L270.956 64.6172L273.512 67.1623V68.4434L272.226 71.0055H270.956L267.097 68.4434L260.699 67.1623L254.283 64.6172L249.154 62.0551H246.581L244.025 64.6172V67.1623V71.0055L247.868 73.5676L252.997 77.4109L260.699 82.5351L259.412 86.3613V91.4855V92.7666L260.699 95.3288H263.254H268.383H270.956L274.799 97.8909H278.641H282.484L285.057 95.3288H287.612H290.185H294.028L295.314 92.7666L296.584 91.4855H297.87H300.443V95.3288H301.713L304.286 97.8909L314.543 106.841H318.386L322.228 104.279H323.515L324.801 99.172L323.515 97.8909H320.942H319.672H318.386H317.099V95.3288L318.386 92.7666L320.942 91.4855H324.801L327.357 92.7666H328.644Z" fill="#E8EBEB" stroke="white" stroke-width="3" stroke-miterlimit="10" stroke-linecap="square"/>
<path d="M313.257 27.5003L315.813 24.9382L319.673 23.6571L322.229 24.9382L323.515 27.5003L324.802 31.3435V36.4507L323.515 37.7318L322.229 39.0129H320.942L319.673 37.7318V33.8886L318.386 30.0625H314.544L313.257 27.5003Z" fill="#E8EBEB" stroke="white" stroke-width="3" stroke-miterlimit="10" stroke-linecap="square"/>
<path d="M345.317 71.0055L344.031 68.4434L341.457 62.0551L338.902 58.2119L335.059 54.3687L332.486 51.8065H331.2V45.4183L332.486 42.8561H333.773L335.059 45.4183L337.615 46.6993L338.902 49.2444H341.457L342.744 45.4183L344.031 40.294L342.744 36.4508H341.457V33.8886V31.3436L342.744 30.0625H345.317L347.873 31.3436L349.159 33.8886H351.715L354.288 31.3436H355.558L356.844 33.8886V37.7318L355.558 40.294L353.002 42.8561L351.715 45.4183L353.002 46.6993L355.558 49.2444H356.844L358.131 51.8065V54.3687L356.844 58.2119L354.288 62.0551L351.715 67.1623L349.159 68.4434L345.317 71.0055Z" fill="#E8EBEB" stroke="white" stroke-width="3" stroke-miterlimit="10" stroke-linecap="square"/>
<path d="M338.902 108.122L337.615 106.841V104.279H338.902L341.458 101.717L342.744 99.172V97.8909L344.031 95.3287L345.317 92.7666H346.587L347.873 95.3287H349.16V97.8909L350.429 99.172L353.002 104.279L354.288 106.841L356.844 108.122V110.685V113.247L355.558 114.528L354.288 117.09H353.002H350.429L349.16 114.528L346.587 113.247L342.744 110.685L338.902 108.122Z" fill="#E8EBEB" stroke="white" stroke-width="3" stroke-miterlimit="10" stroke-linecap="square"/>
<path d="M367.102 60.774L365.815 55.6498L364.546 51.8065V49.2444L365.815 45.4183V42.8561L364.546 37.7319V36.4508V33.8886L367.102 30.0625L369.675 27.5004H372.231L373.517 30.0625H376.073H381.202H382.488H383.775V36.4508L381.202 39.0129V45.4183V49.2444L379.933 51.8065H377.36H374.804L373.517 49.2444H372.231H370.944V51.8065L372.231 54.3687V58.2119V60.774H370.944H368.388H367.102Z" fill="#E8EBEB" stroke="white" stroke-width="3" stroke-miterlimit="10" stroke-linecap="square"/>
<path d="M476.078 117.09L474.792 114.528H472.236L469.663 117.09H467.107V119.635V126.04L468.393 129.883L470.949 132.446H474.792L476.078 129.883V126.04L477.365 119.635L476.078 117.09Z" fill="#E8EBEB" stroke="white" stroke-width="3" stroke-miterlimit="10" stroke-linecap="square"/>
<path d="M422.233 156.752H419.66H418.391L415.818 163.157L413.262 175.951L414.549 178.513L417.104 181.075V184.918L415.818 187.463L413.262 190.026L411.976 191.307V196.431H413.262H415.818H419.66H420.947H423.52L424.789 202.836H426.076L428.649 200.274L429.918 196.431L431.205 191.307L432.491 190.026H433.778H436.334L437.62 187.463V184.918H438.907H440.176L441.462 187.463L444.035 190.026L445.305 191.307L447.878 193.869H451.72H454.293L455.563 191.307V190.026V184.918L454.293 183.637H453.007L449.164 184.918H447.878L446.591 183.637L445.305 181.075L446.591 175.951H445.305L444.035 174.67H438.907L433.778 172.108L429.918 169.563V165.719H427.362H426.076H424.789L422.233 163.157L420.947 160.595L422.233 156.752Z" fill="#E8EBEB" stroke="white" stroke-width="3" stroke-miterlimit="10" stroke-linecap="square"/>
<path d="M447.878 202.836H445.305L442.749 205.381L441.462 206.662L438.907 205.381H436.334L433.778 209.224L432.491 213.068V215.63H433.778H436.334H437.62H440.176L441.462 214.349L442.749 213.068L445.305 211.787L447.878 209.224L449.164 205.381L447.878 202.836Z" fill="#E8EBEB" stroke="white" stroke-width="3" stroke-miterlimit="10" stroke-linecap="square"/>
<path d="M464.534 222.018H467.107L468.393 215.63V213.068L467.107 211.787L464.534 209.224L463.264 211.787L460.691 214.349V218.192H461.978L463.264 222.018H464.534Z" fill="#E8EBEB" stroke="white" stroke-width="3" stroke-miterlimit="10" stroke-linecap="square"/>
<path d="M142.734 21.095L141.465 22.376L140.178 24.9382L137.605 27.5003L135.049 30.0625L131.207 36.4507L126.078 39.0129L124.792 42.8561L126.078 45.4182L127.347 46.6993L131.207 49.2444H132.476V51.8065L131.207 53.0876V55.6497V58.2119L129.92 60.774L126.078 62.0551H124.792L123.505 64.6172V67.1623H126.078H127.347H128.634L127.347 71.0055L126.078 73.5676L123.505 76.1298H122.219H119.663L118.376 77.4108L117.107 79.973L115.82 82.5351L117.107 83.8162L115.82 91.4855H117.107L118.376 92.7666L120.949 95.3288V97.8909H122.219V101.717L119.663 108.122V110.685H118.376H115.82L114.534 114.528V117.09L115.82 119.635V122.197L113.247 126.04H111.978L110.691 128.602V132.446V135.008H111.978H114.534V137.553V138.834L115.82 147.801H117.107L115.82 150.364L114.534 154.19V159.314H115.82H117.107H118.376L119.663 160.595L120.949 163.157H123.505H124.792L127.347 165.719H129.92V168.281L128.634 172.108V174.67L126.078 175.951L124.792 181.075L138.892 190.026L152.992 196.431L174.794 206.662L196.579 215.63L224.796 224.58L246.581 230.986L267.097 237.391L288.899 242.498L310.684 246.341L331.2 248.904L346.586 250.185L349.159 246.341V239.936L350.429 236.11L358.131 227.142L360.686 222.018L363.259 218.192L365.815 209.224H364.546H360.686L359.417 206.662L363.259 202.836L372.231 206.662L377.36 205.381V200.274L374.804 196.431L367.102 191.307L347.873 187.463L346.586 184.918V183.637L347.873 181.075L355.558 183.637L370.944 190.026L373.517 193.869L378.646 191.307L386.331 196.431L392.746 191.307L404.291 187.463L409.419 178.513L411.975 172.108L397.875 169.563L388.904 160.595V156.752L403.004 163.157L408.133 165.719L411.975 160.595L415.818 156.752L414.548 154.19L411.975 150.364L415.818 147.801L426.076 154.19L428.649 152.926L426.076 147.801L427.362 143.958L432.491 150.364L438.906 147.801L441.462 143.958L444.035 138.834L445.305 135.008L436.333 123.478L438.906 117.09L440.176 104.279L424.789 95.3288L418.391 101.717L419.66 117.09L413.262 126.04L409.419 135.008L401.718 128.602L404.291 114.528L397.875 104.279L391.46 119.635L388.904 108.122L373.517 97.8909L377.36 88.9234L369.675 67.1623L365.815 62.0551L364.546 64.6172L355.558 92.7666L368.388 104.279L358.131 122.197L353.002 138.834L344.03 117.09L333.773 123.478L322.228 126.04L301.713 113.247L300.443 101.717L279.928 104.279L285.057 113.247L279.928 132.446L268.383 106.841L244.026 101.717L242.739 92.7666H249.154L247.868 83.8162L236.324 79.973L228.639 67.1623L220.954 62.0551L215.825 54.3686L206.837 53.0876L208.123 45.4182L200.438 49.2444L196.579 42.8561L199.152 33.8886L196.579 30.0625L191.467 33.8886L186.338 36.4507L173.508 33.8886L164.536 27.5003L173.508 30.0625L183.765 31.3435L186.338 30.0625L174.794 23.6571H163.25L155.565 24.9382L150.436 30.0625L147.863 23.6571L142.734 21.095Z" fill="#E8EBEB" stroke="white" stroke-width="3" stroke-miterlimit="10" stroke-linecap="square"/>
<path d="M410.689 31.3435L411.976 36.4507L410.689 42.8561L405.56 49.2443L404.291 54.3686L405.56 58.2118L411.976 64.6172L413.262 73.5676L415.818 76.1297H419.66L422.233 68.4433L418.391 64.6172L417.104 60.774L418.391 58.2118V54.3686L415.818 51.8065H414.549L415.818 45.4182L422.233 37.7318L427.362 31.3435H428.649L431.205 33.8886V39.0128L433.778 42.8561L435.047 49.2443L433.778 60.774L435.047 62.055L441.462 55.6497L444.035 54.3686L447.878 60.774H450.434L451.72 54.3686L447.878 51.8065V49.2443L453.007 46.6993L459.405 49.2443L460.691 55.6497L465.82 51.8065L467.107 55.6497V60.774L472.236 62.055L474.792 67.1622L478.651 64.6172L477.365 58.2118H481.207L486.336 64.6172L483.78 71.0055L490.178 76.1297L494.038 73.5676L495.307 67.1622H503.009L504.279 73.5676L499.15 79.9729L500.436 82.5351L506.852 77.4108V73.5676L509.407 71.0055H514.536L510.694 77.4108L506.852 82.5351H511.98L517.109 83.8162L520.952 82.5351L522.238 86.3612L519.665 88.9234H514.536L509.407 91.4855L514.536 97.8909H520.952L527.367 104.279H532.496L537.625 101.717H540.181L542.754 104.279L541.467 108.122L544.023 110.684H549.152L551.725 108.122L553.012 110.684L554.281 113.247L560.696 110.684H564.539L567.112 113.247L565.825 117.09H561.983V119.635L563.269 123.478H564.539V128.602H560.696V132.446L564.539 135.008V141.396H560.696L558.14 138.834H555.567L553.012 137.553L549.152 128.602L546.596 126.04L538.894 128.602H531.209L535.052 132.446V135.008H529.923H528.654L532.496 138.834L536.338 143.958H540.181L544.023 150.364L549.152 147.801L554.281 150.364L555.567 156.752L564.539 159.314L563.269 163.157V169.562L568.398 175.951L569.668 178.513H559.41L545.31 169.562L544.023 172.108H538.894L537.625 175.951L549.152 181.075L553.012 184.918H561.983L565.825 187.463L561.983 196.431L545.31 191.307H537.625L532.496 190.025L523.525 191.307L517.109 184.918L518.396 178.513H513.267L503.009 174.67L499.15 165.719H494.038L495.307 174.67L488.909 172.108L485.049 175.951L474.792 178.513L467.107 172.108L470.949 160.595H476.078H483.78L494.038 156.752V152.926L490.178 147.801L492.751 141.396L496.594 135.008H505.565L510.694 138.834H515.823L519.665 135.008L517.109 128.602H506.852V132.446H501.723L496.594 128.602L497.88 122.197L496.594 119.635L479.921 101.717L467.107 97.8909L463.264 92.7666L458.136 86.3612L451.72 82.5351H447.878L451.72 91.4855L450.434 92.7666L441.462 88.9234H436.333L429.918 95.3287L414.549 88.9234H406.847L397.875 82.5351L396.589 76.1297H399.162L404.291 77.4108L405.56 73.5676H399.162L397.875 68.4433L392.746 67.1622L391.46 60.774L392.746 51.8065L396.589 45.4182L405.56 33.8886L410.689 31.3435Z" fill="#E8EBEB" stroke="white" stroke-width="3" stroke-miterlimit="10" stroke-linecap="square"/>
</g>
<defs>
<clipPath id="clip0_331_31">
<rect width="774" height="536" fill="white"/>
</clipPath>
</defs>
</svg>
